<svg width="155" height="32" viewBox="0 0 155 32" fill="none" xmlns="http://www.w3.org/2000/svg">
<path d="M5.83333 29.9791H0L12.2917 10.7342L10.625 5.42879H6.45833V0.643555H14.2708L24.375 25.61L28.4375 24.2576L30 28.6268L20.7292 31.6436L14.8958 16.7677L5.83333 29.9791Z" fill="white"/>
<path d="M38.9147 22.6436H36.7458L41.6192 9.10123H43.9798L48.8532 22.6436H46.6843L42.8557 11.5611H42.7499L38.9147 22.6436ZM39.2784 17.3404H46.314V19.0596H39.2784V17.3404ZM52.2967 22.6436L48.5408 9.10123H50.6898L53.3282 19.5886H53.4538L56.198 9.10123H58.3272L61.0714 19.5952H61.197L63.8288 9.10123H65.9845L62.222 22.6436H60.1655L57.3155 12.5H57.2097L54.3597 22.6436H52.2967ZM75.1973 12.6587C75.1267 12.0328 74.8358 11.5478 74.3244 11.204C73.8131 10.8557 73.1694 10.6816 72.3936 10.6816C71.8381 10.6816 71.3576 10.7698 70.9521 10.9461C70.5465 11.118 70.2313 11.3561 70.0065 11.6603C69.7861 11.96 69.6759 12.3017 69.6759 12.6852C69.6759 13.007 69.7508 13.2847 69.9007 13.5184C70.055 13.752 70.2556 13.9482 70.5024 14.1069C70.7537 14.2612 71.0226 14.3912 71.3091 14.497C71.5957 14.5984 71.8712 14.6822 72.1357 14.7483L73.4582 15.0921C73.8902 15.1979 74.3332 15.3412 74.7873 15.5219C75.2413 15.7027 75.6623 15.9407 76.0503 16.2361C76.4382 16.5314 76.7512 16.8973 76.9892 17.3337C77.2317 17.7702 77.3529 18.2926 77.3529 18.9009C77.3529 19.6679 77.1546 20.349 76.7578 20.9442C76.3655 21.5393 75.7946 22.0088 75.0452 22.3526C74.3002 22.6965 73.3987 22.8684 72.3407 22.8684C71.3268 22.8684 70.4495 22.7075 69.7089 22.3857C68.9683 22.0639 68.3886 21.6076 67.9698 21.0169C67.5511 20.4218 67.3196 19.7164 67.2755 18.9009H69.3254C69.3651 19.3902 69.5238 19.798 69.8015 20.1242C70.0836 20.446 70.4429 20.6863 70.8793 20.845C71.3202 20.9993 71.8029 21.0764 72.3275 21.0764C72.9049 21.0764 73.4185 20.986 73.8682 20.8053C74.3222 20.6201 74.6793 20.3645 74.9394 20.0382C75.1995 19.7076 75.3295 19.3219 75.3295 18.8811C75.3295 18.4799 75.2149 18.1515 74.9857 17.8958C74.7608 17.6401 74.4545 17.4285 74.0665 17.261C73.683 17.0935 73.2488 16.9458 72.7639 16.818L71.1637 16.3816C70.0792 16.0862 69.2196 15.652 68.5848 15.0789C67.9544 14.5058 67.6392 13.7476 67.6392 12.8042C67.6392 12.0239 67.8508 11.3429 68.274 10.761C68.6972 10.1791 69.2703 9.72721 69.9933 9.40541C70.7162 9.07919 71.5318 8.91609 72.4399 8.91609C73.3568 8.91609 74.1657 9.07699 74.8666 9.3988C75.572 9.7206 76.1274 10.1636 76.533 10.7279C76.9385 11.2878 77.1501 11.9314 77.1678 12.6587H75.1973ZM84.7225 22.6436V9.10123H86.7658V20.8846H92.9021V22.6436H84.7225ZM98.0301 22.8684C97.3865 22.8684 96.8046 22.7494 96.2844 22.5113C95.7642 22.2688 95.352 21.9184 95.0479 21.4599C94.7481 21.0015 94.5982 20.4394 94.5982 19.7737C94.5982 19.2007 94.7084 18.729 94.9288 18.3587C95.1493 17.9884 95.4468 17.6952 95.8215 17.4792C96.1962 17.2632 96.615 17.1001 97.0779 16.9899C97.5408 16.8797 98.0125 16.7959 98.493 16.7386C99.1013 16.6681 99.595 16.6108 99.9742 16.5667C100.353 16.5182 100.629 16.4411 100.801 16.3353C100.973 16.2295 101.059 16.0575 101.059 15.8195V15.7732C101.059 15.1957 100.895 14.7483 100.569 14.4309C100.247 14.1135 99.767 13.9548 99.1278 13.9548C98.4621 13.9548 97.9375 14.1025 97.554 14.3978C97.1749 14.6888 96.9126 15.0128 96.7671 15.3698L94.909 14.9467C95.1294 14.3295 95.4512 13.8313 95.8744 13.4522C96.302 13.0687 96.7936 12.791 97.349 12.6191C97.9045 12.4427 98.4886 12.3546 99.1013 12.3546C99.5069 12.3546 99.9367 12.4031 100.391 12.5C100.849 12.5926 101.277 12.7645 101.674 13.0158C102.075 13.2671 102.403 13.6264 102.659 14.0936C102.914 14.5565 103.042 15.1582 103.042 15.8988V22.6436H101.111V21.2549H101.032C100.904 21.5106 100.713 21.7619 100.457 22.0088C100.201 22.2556 99.8728 22.4606 99.4716 22.6237C99.0705 22.7868 98.5899 22.8684 98.0301 22.8684ZM98.4599 21.2814C99.0065 21.2814 99.4738 21.1734 99.8617 20.9574C100.254 20.7414 100.552 20.4592 100.754 20.111C100.962 19.7583 101.065 19.3814 101.065 18.9803V17.671C100.995 17.7415 100.858 17.8076 100.655 17.8694C100.457 17.9267 100.23 17.9774 99.9742 18.0214C99.7185 18.0611 99.4694 18.0986 99.2269 18.1339C98.9845 18.1647 98.7817 18.1912 98.6186 18.2132C98.2351 18.2617 97.8846 18.3433 97.5672 18.4579C97.2542 18.5725 97.003 18.7378 96.8134 18.9538C96.6282 19.1654 96.5357 19.4475 96.5357 19.8002C96.5357 20.2895 96.7164 20.6598 97.0779 20.9111C97.4394 21.158 97.9 21.2814 98.4599 21.2814ZM105.676 22.6436V12.4868H107.574V14.1399H107.699C107.911 13.5801 108.257 13.1437 108.737 12.8307C109.218 12.5133 109.793 12.3546 110.463 12.3546C111.142 12.3546 111.711 12.5133 112.169 12.8307C112.632 13.1481 112.974 13.5845 113.194 14.1399H113.3C113.542 13.5977 113.928 13.1657 114.457 12.8439C114.986 12.5177 115.616 12.3546 116.348 12.3546C117.27 12.3546 118.021 12.6433 118.603 13.2208C119.189 13.7983 119.483 14.6689 119.483 15.8327V22.6436H117.505V16.0179C117.505 15.3302 117.318 14.832 116.943 14.5235C116.569 14.2149 116.121 14.0606 115.601 14.0606C114.957 14.0606 114.457 14.259 114.1 14.6557C113.743 15.048 113.564 15.5528 113.564 16.17V22.6436H111.594V15.8922C111.594 15.3412 111.422 14.8982 111.078 14.5631C110.734 14.2281 110.287 14.0606 109.736 14.0606C109.361 14.0606 109.015 14.1598 108.698 14.3581C108.385 14.5521 108.131 14.8232 107.937 15.1715C107.748 15.5197 107.653 15.9231 107.653 16.3816V22.6436H105.676ZM122.291 22.6436V9.10123H124.268V14.1333H124.387C124.502 13.9217 124.667 13.6771 124.883 13.3993C125.099 13.1216 125.399 12.8792 125.783 12.672C126.166 12.4604 126.673 12.3546 127.303 12.3546C128.123 12.3546 128.855 12.5618 129.499 12.9761C130.142 13.3905 130.647 13.9878 131.013 14.7681C131.383 15.5484 131.568 16.4874 131.568 17.585C131.568 18.6827 131.386 19.6239 131.02 20.4085C130.654 21.1888 130.151 21.7905 129.512 22.2137C128.873 22.6325 128.143 22.8419 127.323 22.8419C126.706 22.8419 126.201 22.7383 125.809 22.5311C125.421 22.324 125.117 22.0815 124.897 21.8038C124.676 21.526 124.506 21.2792 124.387 21.0632H124.222V22.6436H122.291ZM124.229 17.5652C124.229 18.2793 124.332 18.9053 124.539 19.4431C124.747 19.9809 125.046 20.4019 125.439 20.7061C125.831 21.0059 126.312 21.1558 126.88 21.1558C127.471 21.1558 127.965 20.9993 128.361 20.6863C128.758 20.3689 129.058 19.9391 129.261 19.3968C129.468 18.8546 129.572 18.2441 129.572 17.5652C129.572 16.8951 129.47 16.2934 129.267 15.76C129.069 15.2266 128.769 14.8056 128.368 14.497C127.971 14.1884 127.475 14.0341 126.88 14.0341C126.307 14.0341 125.822 14.1818 125.426 14.4772C125.033 14.7725 124.736 15.1847 124.533 15.7137C124.33 16.2427 124.229 16.8599 124.229 17.5652ZM137.591 22.8419C136.771 22.8419 136.039 22.6325 135.395 22.2137C134.756 21.7905 134.254 21.1888 133.888 20.4085C133.526 19.6239 133.346 18.6827 133.346 17.585C133.346 16.4874 133.529 15.5484 133.894 14.7681C134.265 13.9878 134.772 13.3905 135.415 12.9761C136.059 12.5618 136.788 12.3546 137.604 12.3546C138.234 12.3546 138.741 12.4604 139.125 12.672C139.513 12.8792 139.813 13.1216 140.024 13.3993C140.24 13.6771 140.408 13.9217 140.527 14.1333H140.646V9.10123H142.623V22.6436H140.692V21.0632H140.527C140.408 21.2792 140.236 21.526 140.011 21.8038C139.791 22.0815 139.486 22.324 139.098 22.5311C138.71 22.7383 138.208 22.8419 137.591 22.8419ZM138.027 21.1558C138.596 21.1558 139.076 21.0059 139.469 20.7061C139.865 20.4019 140.165 19.9809 140.368 19.4431C140.575 18.9053 140.679 18.2793 140.679 17.5652C140.679 16.8599 140.577 16.2427 140.375 15.7137C140.172 15.1847 139.874 14.7725 139.482 14.4772C139.09 14.1818 138.605 14.0341 138.027 14.0341C137.432 14.0341 136.936 14.1884 136.539 14.497C136.143 14.8056 135.843 15.2266 135.64 15.76C135.442 16.2934 135.343 16.8951 135.343 17.5652C135.343 18.2441 135.444 18.8546 135.647 19.3968C135.85 19.9391 136.149 20.3689 136.546 20.6863C136.947 20.9993 137.441 21.1558 138.027 21.1558ZM148.401 22.8684C147.757 22.8684 147.175 22.7494 146.655 22.5113C146.135 22.2688 145.722 21.9184 145.418 21.4599C145.119 21.0015 144.969 20.4394 144.969 19.7737C144.969 19.2007 145.079 18.729 145.299 18.3587C145.52 17.9884 145.817 17.6952 146.192 17.4792C146.567 17.2632 146.985 17.1001 147.448 16.9899C147.911 16.8797 148.383 16.7959 148.863 16.7386C149.472 16.6681 149.965 16.6108 150.345 16.5667C150.724 16.5182 150.999 16.4411 151.171 16.3353C151.343 16.2295 151.429 16.0575 151.429 15.8195V15.7732C151.429 15.1957 151.266 14.7483 150.94 14.4309C150.618 14.1135 150.137 13.9548 149.498 13.9548C148.833 13.9548 148.308 14.1025 147.924 14.3978C147.545 14.6888 147.283 15.0128 147.138 15.3698L145.279 14.9467C145.5 14.3295 145.822 13.8313 146.245 13.4522C146.672 13.0687 147.164 12.791 147.719 12.6191C148.275 12.4427 148.859 12.3546 149.472 12.3546C149.877 12.3546 150.307 12.4031 150.761 12.5C151.22 12.5926 151.647 12.7645 152.044 13.0158C152.445 13.2671 152.774 13.6264 153.029 14.0936C153.285 14.5565 153.413 15.1582 153.413 15.8988V22.6436H151.482V21.2549H151.403C151.275 21.5106 151.083 21.7619 150.827 22.0088C150.572 22.2556 150.243 22.4606 149.842 22.6237C149.441 22.7868 148.96 22.8684 148.401 22.8684ZM148.83 21.2814C149.377 21.2814 149.844 21.1734 150.232 20.9574C150.624 20.7414 150.922 20.4592 151.125 20.111C151.332 19.7583 151.436 19.3814 151.436 18.9803V17.671C151.365 17.7415 151.228 17.8076 151.026 17.8694C150.827 17.9267 150.6 17.9774 150.345 18.0214C150.089 18.0611 149.84 18.0986 149.597 18.1339C149.355 18.1647 149.152 18.1912 148.989 18.2132C148.605 18.2617 148.255 18.3433 147.938 18.4579C147.625 18.5725 147.373 18.7378 147.184 18.9538C146.999 19.1654 146.906 19.4475 146.906 19.8002C146.906 20.2895 147.087 20.6598 147.448 20.9111C147.81 21.158 148.27 21.2814 148.83 21.2814Z" fill="white"/>
</svg>
