<svg width="90" height="30" viewBox="0 0 90 30" fill="none" xmlns="http://www.w3.org/2000/svg">
<g clip-path="url(#clip0_3567_7418)">
<path d="M75.5698 18.9409L75.7876 18.1893C76.0472 17.2952 75.9506 16.4687 75.5151 15.8614C75.1143 15.3021 74.4464 14.9727 73.6353 14.9344L58.2728 14.7404C58.2251 14.7394 58.1783 14.7273 58.1362 14.705C58.094 14.6827 58.0579 14.6508 58.0304 14.612C58.0036 14.5718 57.9864 14.5259 57.9803 14.4779C57.9744 14.43 57.9797 14.3813 57.9959 14.3358C58.0222 14.2607 58.0701 14.1949 58.1334 14.1466C58.197 14.0983 58.2731 14.0696 58.3527 14.0641L73.8575 13.868C75.6968 13.7837 77.6881 12.2954 78.3853 10.4805L79.2695 8.17633C79.3058 8.0789 79.314 7.97334 79.2935 7.87148C78.2895 3.36782 74.2591 0 69.4402 0C65.0002 0 61.2303 2.85791 59.8781 6.83023C58.9643 6.14623 57.825 5.83179 56.6886 5.94987C54.5585 6.16082 52.8459 7.87113 52.635 9.99575C52.581 10.5263 52.6205 11.0621 52.7521 11.579C49.2725 11.6802 46.4819 14.5232 46.4819 18.018C46.4824 18.33 46.5055 18.6415 46.5511 18.9502C46.5612 19.0215 46.5965 19.0868 46.6509 19.1342C46.7052 19.1817 46.775 19.208 46.8471 19.2084L75.209 19.212C75.2117 19.2121 75.2144 19.2121 75.217 19.212C75.2973 19.2105 75.3749 19.1834 75.4384 19.1347C75.5019 19.0858 75.548 19.0179 75.5698 18.9409Z" fill="white"/>
<path d="M80.6875 8.34341C80.5452 8.34341 80.4033 8.34699 80.262 8.35411C80.2392 8.35574 80.2169 8.36063 80.1956 8.36863C80.1585 8.38125 80.1251 8.40263 80.0981 8.43095C80.0712 8.45926 80.0515 8.49368 80.0408 8.53123L79.4368 10.612C79.1771 11.5062 79.2736 12.332 79.7096 12.9393C80.1101 13.4992 80.7779 13.8279 81.589 13.8662L84.864 14.0623C84.9101 14.0638 84.9551 14.076 84.9956 14.098C85.0361 14.1199 85.0709 14.151 85.0972 14.1887C85.1245 14.2291 85.1418 14.2753 85.1477 14.3235C85.1538 14.3718 85.1483 14.4208 85.1319 14.4666C85.1055 14.5415 85.0577 14.6072 84.9945 14.6555C84.9312 14.7037 84.8551 14.7325 84.7758 14.7383L81.3729 14.9344C79.5254 15.0194 77.5344 16.5069 76.8379 18.3219L76.5921 18.9627C76.5819 18.9894 76.578 19.0182 76.5811 19.0467C76.5842 19.0753 76.594 19.1028 76.6098 19.1267C76.6257 19.1506 76.6469 19.1706 76.6719 19.1848C76.6969 19.1988 76.7251 19.2069 76.7538 19.2081C76.7569 19.2081 76.7597 19.2081 76.7628 19.2081H88.4716C88.5397 19.2087 88.6061 19.1871 88.6607 19.1465C88.7152 19.1059 88.755 19.0487 88.7739 18.9833C88.9813 18.2452 89.0861 17.4822 89.0854 16.7155C89.0841 12.092 85.3247 8.34341 80.6875 8.34341Z" fill="white"/>
<path d="M9.91522 22.6685H11.9127V28.1104H15.4034V29.8558H9.91522V22.6685Z" fill="white"/>
<path d="M17.4722 26.2828V26.2624C17.4722 24.1986 19.1401 22.5245 21.3641 22.5245C23.5881 22.5245 25.2351 24.1779 25.2351 26.2417V26.2624C25.2351 28.3262 23.5669 29.9993 21.3436 29.9993C19.1204 29.9993 17.4722 28.3466 17.4722 26.2828ZM23.1964 26.2828V26.2624C23.1964 25.2268 22.4452 24.3214 21.3436 24.3214C20.2522 24.3214 19.521 25.2046 19.521 26.2417V26.2624C19.521 27.2982 20.2726 28.2031 21.3641 28.2031C22.4656 28.2031 23.1964 27.32 23.1964 26.2828Z" fill="white"/>
<path d="M27.6799 26.7037V22.6682H29.7083V26.6629C29.7083 27.6986 30.2335 28.1926 31.0362 28.1926C31.8391 28.1926 32.3642 27.7204 32.3642 26.714V22.6682H34.3929V26.6512C34.3929 28.9719 33.0649 29.9879 31.0158 29.9879C28.9667 29.9879 27.6799 28.9522 27.6799 26.7027" fill="white"/>
<path d="M37.4498 22.6688H40.2296C42.804 22.6688 44.2967 24.1472 44.2967 26.221V26.242C44.2967 28.3156 42.7832 29.8561 40.1888 29.8561H37.4498V22.6688ZM40.2609 28.0892C41.4556 28.0892 42.2476 27.4331 42.2476 26.2714V26.251C42.2476 25.1014 41.4556 24.4337 40.2609 24.4337H39.4473V28.0897L40.2609 28.0892Z" fill="white"/>
<path d="M47.1998 22.6685H52.9654V24.4144H49.1974V25.6358H52.6052V27.2888H49.1974V29.8558H47.1998V22.6685Z" fill="white"/>
<path d="M55.7449 22.6685H57.7424V28.1104H61.233V29.8558H55.7449V22.6685Z" fill="white"/>
<path d="M66.4526 22.6171H68.3773L71.4459 29.8558H69.3044L68.7789 28.5721H65.9987L65.4843 29.8558H63.384L66.4526 22.6171ZM68.2026 27.022L67.3994 24.9785L66.5859 27.022H68.2026Z" fill="white"/>
<path d="M74.0189 22.6682H77.4268C78.5291 22.6682 79.2903 22.9561 79.7743 23.4488C80.197 23.8596 80.4129 24.4154 80.4129 25.1229V25.1431C80.4129 26.2414 79.8245 26.9706 78.9302 27.3503L80.6499 29.8561H78.3428L76.8912 27.6789H76.0163V29.8561H74.0189V22.6682ZM77.3344 26.1185C78.0139 26.1185 78.4054 25.7898 78.4054 25.2661V25.2457C78.4054 24.6808 77.9935 24.3937 77.3236 24.3937H76.0163V26.1198L77.3344 26.1185Z" fill="white"/>
<path d="M83.295 22.6685H89.0913V24.363H85.2721V25.4508H88.7316V27.022H85.2721V28.1619H89.1429V29.8558H83.295V22.6685Z" fill="white"/>
<path d="M5.54181 27.1252C5.26209 27.7559 4.67356 28.2027 3.89151 28.2027C2.79963 28.2027 2.0484 27.2991 2.0484 26.2621V26.2414C2.0484 25.2056 2.77921 24.3211 3.87075 24.3211C4.69364 24.3211 5.32024 24.826 5.58474 25.5126H7.69026C7.35307 23.802 5.84576 22.5248 3.89151 22.5248C1.66725 22.5248 0 24.1999 0 26.2621V26.2825C0 28.3463 1.64683 30 3.87075 30C5.77307 30 7.25994 28.7716 7.65219 27.1255L5.54181 27.1252Z" fill="white"/>
</g>
<defs>
<clipPath id="clip0_3567_7418">
<rect width="89.1429" height="30" fill="white"/>
</clipPath>
</defs>
</svg>
