<svg width="158" height="36" viewBox="0 0 158 36" fill="none" xmlns="http://www.w3.org/2000/svg">
<g clip-path="url(#clip0_3567_7509)">
<path d="M18 34.1719C26.9315 34.1719 34.1719 26.9315 34.1719 18C34.1719 9.06852 26.9315 1.82812 18 1.82812C9.06852 1.82812 1.82812 9.06852 1.82812 18C1.82812 26.9315 9.06852 34.1719 18 34.1719Z" stroke="white" stroke-width="1.75781" stroke-linecap="round"/>
<path d="M4.84065 22.8994L6.03124 18.4935M7.42942 11.8564L8.62001 7.45056M2.45456 16.0458L3.64515 11.64M8.69005 27.515L9.88064 23.1092M11.7273 32.5034L12.2904 30.2305M15.9762 32.5034L17.1668 28.0975M14.3134 7.06536L15.504 2.65951M22.7272 12.6893L23.9178 8.28341M31.5367 21.8988L32.7273 17.493M28.5211 16.0458L29.7117 11.64M20.8105 4.40584L21.4091 2.20291M27.9258 6.60876V5.59089" stroke="white" stroke-width="1.75781" stroke-linecap="round"/>
<path d="M18.4219 15.3984C19.0432 15.3984 19.5469 14.8948 19.5469 14.2734C19.5469 13.6521 19.0432 13.1484 18.4219 13.1484C17.8006 13.1484 17.2969 13.6521 17.2969 14.2734C17.2969 14.8948 17.8006 15.3984 18.4219 15.3984Z" fill="white"/>
<path d="M30.2727 27.9546C27.5834 17.8627 27.3827 17.1292 27.2017 16.5455C26.6393 14.7324 25.5397 13.0862 24.0011 11.883C22.2532 10.5159 20.0138 9.76712 17.3642 9.76712C11.8783 9.76712 7.63638 13.2582 7.63638 17.582C7.63638 21.7911 11.7093 24.4004 17.8019 24.2169C17.8026 24.2181 17.8033 24.2193 17.804 24.2205C17.8706 24.3324 17.95 24.5207 18.0362 24.7796C18.2199 25.3304 18.4267 26.1711 18.6543 27.2964C19.1134 29.5672 18.8778 29.5362 19.5 34.0909" stroke="white" stroke-width="0.84375"/>
</g>
<path d="M50.0915 24.5H45.7074V10.9577H50.2304C51.5573 10.9577 52.6968 11.2288 53.649 11.771C54.6012 12.3088 55.3308 13.0825 55.8377 14.092C56.3491 15.0971 56.6048 16.3028 56.6048 17.709C56.6048 19.1197 56.3469 20.3319 55.8311 21.3459C55.3197 22.3598 54.5791 23.14 53.6093 23.6867C52.6395 24.2289 51.4669 24.5 50.0915 24.5ZM47.7507 22.7146H49.9791C51.0106 22.7146 51.868 22.5207 52.5513 22.1327C53.2346 21.7404 53.746 21.1739 54.0854 20.4333C54.4249 19.6883 54.5946 18.7802 54.5946 17.709C54.5946 16.6466 54.4249 15.7451 54.0854 15.0045C53.7504 14.2639 53.25 13.7019 52.5844 13.3183C51.9187 12.9348 51.0922 12.743 50.1047 12.743H47.7507V22.7146ZM63.3644 24.705C62.3637 24.705 61.5018 24.4912 60.7789 24.0636C60.0603 23.6316 59.5049 23.0254 59.1125 22.2452C58.7246 21.4605 58.5306 20.5413 58.5306 19.4878C58.5306 18.4474 58.7246 17.5305 59.1125 16.737C59.5049 15.9435 60.0515 15.3241 60.7524 14.8789C61.4578 14.4336 62.2821 14.211 63.2255 14.211C63.7986 14.211 64.354 14.3058 64.8918 14.4953C65.4296 14.6849 65.9124 14.9825 66.34 15.388C66.7676 15.7936 67.1048 16.3204 67.3517 16.9684C67.5985 17.612 67.722 18.3945 67.722 19.3158V20.0168H59.6482V18.5356H65.7845C65.7845 18.0154 65.6787 17.5547 65.4671 17.1536C65.2555 16.748 64.958 16.4284 64.5744 16.1947C64.1953 15.9611 63.7501 15.8443 63.2387 15.8443C62.6833 15.8443 62.1984 15.9809 61.784 16.2543C61.374 16.5232 61.0566 16.8758 60.8318 17.3123C60.6114 17.7443 60.5012 18.2138 60.5012 18.7207V19.8779C60.5012 20.5568 60.6202 21.1343 60.8582 21.6104C61.1007 22.0865 61.4379 22.4501 61.8699 22.7014C62.302 22.9483 62.8067 23.0717 63.3842 23.0717C63.7589 23.0717 64.1005 23.0188 64.4091 22.913C64.7177 22.8028 64.9844 22.6397 65.2092 22.4237C65.4341 22.2077 65.606 21.941 65.725 21.6236L67.5963 21.9608C67.4464 22.5119 67.1775 22.9946 66.7896 23.4089C66.4061 23.8189 65.9234 24.1385 65.3415 24.3678C64.764 24.5926 64.1049 24.705 63.3644 24.705ZM71.8928 18.4694V24.5H69.9156V14.3433H71.8134V15.9964H71.9391C72.1727 15.4586 72.5386 15.0265 73.0367 14.7003C73.5393 14.3741 74.1719 14.211 74.9345 14.211C75.6266 14.211 76.2328 14.3565 76.7529 14.6474C77.2731 14.934 77.6765 15.3616 77.963 15.9303C78.2496 16.4989 78.3928 17.202 78.3928 18.0396V24.5H76.4157V18.2777C76.4157 17.5415 76.2239 16.9662 75.8404 16.5518C75.4569 16.133 74.9301 15.9236 74.26 15.9236C73.8016 15.9236 73.3938 16.0228 73.0367 16.2212C72.6841 16.4196 72.4041 16.7105 72.1969 17.094C71.9942 17.4732 71.8928 17.9316 71.8928 18.4694ZM85.3227 24.705C84.3705 24.705 83.5395 24.4868 82.8298 24.0504C82.12 23.6139 81.569 23.0034 81.1767 22.2187C80.7843 21.434 80.5882 20.5171 80.5882 19.4679C80.5882 18.4143 80.7843 17.493 81.1767 16.7039C81.569 15.9148 82.12 15.3021 82.8298 14.8656C83.5395 14.4292 84.3705 14.211 85.3227 14.211C86.2749 14.211 87.1058 14.4292 87.8156 14.8656C88.5253 15.3021 89.0764 15.9148 89.4687 16.7039C89.861 17.493 90.0572 18.4143 90.0572 19.4679C90.0572 20.5171 89.861 21.434 89.4687 22.2187C89.0764 23.0034 88.5253 23.6139 87.8156 24.0504C87.1058 24.4868 86.2749 24.705 85.3227 24.705ZM85.3293 23.0453C85.9465 23.0453 86.4578 22.8822 86.8634 22.5559C87.269 22.2297 87.5687 21.7955 87.7627 21.2533C87.9611 20.7111 88.0602 20.1137 88.0602 19.4613C88.0602 18.8133 87.9611 18.2182 87.7627 17.6759C87.5687 17.1293 87.269 16.6907 86.8634 16.3601C86.4578 16.0294 85.9465 15.8641 85.3293 15.8641C84.7077 15.8641 84.192 16.0294 83.782 16.3601C83.3764 16.6907 83.0744 17.1293 82.8761 17.6759C82.6821 18.2182 82.5851 18.8133 82.5851 19.4613C82.5851 20.1137 82.6821 20.7111 82.8761 21.2533C83.0744 21.7955 83.3764 22.2297 83.782 22.5559C84.192 22.8822 84.7077 23.0453 85.3293 23.0453ZM101.735 24.5H97.3507V10.9577H101.874C103.201 10.9577 104.34 11.2288 105.292 11.771C106.245 12.3088 106.974 13.0825 107.481 14.092C107.992 15.0971 108.248 16.3028 108.248 17.709C108.248 19.1197 107.99 20.3319 107.474 21.3459C106.963 22.3598 106.222 23.14 105.253 23.6867C104.283 24.2289 103.11 24.5 101.735 24.5ZM99.394 22.7146H101.622C102.654 22.7146 103.511 22.5207 104.195 22.1327C104.878 21.7404 105.389 21.1739 105.729 20.4333C106.068 19.6883 106.238 18.7802 106.238 17.709C106.238 16.6466 106.068 15.7451 105.729 15.0045C105.394 14.2639 104.893 13.7019 104.228 13.3183C103.562 12.9348 102.735 12.743 101.748 12.743H99.394V22.7146ZM115.008 24.705C114.007 24.705 113.145 24.4912 112.422 24.0636C111.704 23.6316 111.148 23.0254 110.756 22.2452C110.368 21.4605 110.174 20.5413 110.174 19.4878C110.174 18.4474 110.368 17.5305 110.756 16.737C111.148 15.9435 111.695 15.3241 112.396 14.8789C113.101 14.4336 113.925 14.211 114.869 14.211C115.442 14.211 115.997 14.3058 116.535 14.4953C117.073 14.6849 117.556 14.9825 117.983 15.388C118.411 15.7936 118.748 16.3204 118.995 16.9684C119.242 17.612 119.365 18.3945 119.365 19.3158V20.0168H111.291V18.5356H117.428C117.428 18.0154 117.322 17.5547 117.11 17.1536C116.899 16.748 116.601 16.4284 116.218 16.1947C115.839 15.9611 115.393 15.8443 114.882 15.8443C114.327 15.8443 113.842 15.9809 113.427 16.2543C113.017 16.5232 112.7 16.8758 112.475 17.3123C112.255 17.7443 112.144 18.2138 112.144 18.7207V19.8779C112.144 20.5568 112.263 21.1343 112.502 21.6104C112.744 22.0865 113.081 22.4501 113.513 22.7014C113.945 22.9483 114.45 23.0717 115.028 23.0717C115.402 23.0717 115.744 23.0188 116.052 22.913C116.361 22.8028 116.628 22.6397 116.853 22.4237C117.077 22.2077 117.249 21.941 117.368 21.6236L119.24 21.9608C119.09 22.5119 118.821 22.9946 118.433 23.4089C118.049 23.8189 117.567 24.1385 116.985 24.3678C116.407 24.5926 115.748 24.705 115.008 24.705ZM121.559 28.3088V14.3433H123.49V15.9898H123.655C123.77 15.7782 123.935 15.5335 124.151 15.2558C124.367 14.9781 124.667 14.7356 125.05 14.5284C125.434 14.3168 125.941 14.211 126.571 14.211C127.391 14.211 128.123 14.4182 128.767 14.8326C129.41 15.247 129.915 15.8443 130.281 16.6246C130.651 17.4048 130.836 18.3438 130.836 19.4415C130.836 20.5391 130.653 21.4803 130.287 22.265C129.922 23.0453 129.419 23.647 128.78 24.0702C128.141 24.489 127.411 24.6984 126.591 24.6984C125.974 24.6984 125.469 24.5948 125.077 24.3876C124.689 24.1804 124.385 23.9379 124.164 23.6602C123.944 23.3825 123.774 23.1356 123.655 22.9196H123.536V28.3088H121.559ZM123.496 19.4216C123.496 20.1358 123.6 20.7618 123.807 21.2996C124.014 21.8374 124.314 22.2584 124.707 22.5625C125.099 22.8623 125.579 23.0122 126.148 23.0122C126.739 23.0122 127.232 22.8557 127.629 22.5427C128.026 22.2253 128.326 21.7955 128.529 21.2533C128.736 20.7111 128.839 20.1005 128.839 19.4216C128.839 18.7516 128.738 18.1498 128.535 17.6164C128.337 17.083 128.037 16.662 127.636 16.3534C127.239 16.0449 126.743 15.8906 126.148 15.8906C125.575 15.8906 125.09 16.0383 124.693 16.3336C124.301 16.629 124.003 17.0411 123.801 17.5701C123.598 18.0991 123.496 18.7163 123.496 19.4216ZM135.029 10.9577V24.5H133.051V10.9577H135.029ZM141.967 24.705C141.014 24.705 140.184 24.4868 139.474 24.0504C138.764 23.6139 138.213 23.0034 137.821 22.2187C137.428 21.434 137.232 20.5171 137.232 19.4679C137.232 18.4143 137.428 17.493 137.821 16.7039C138.213 15.9148 138.764 15.3021 139.474 14.8656C140.184 14.4292 141.014 14.211 141.967 14.211C142.919 14.211 143.75 14.4292 144.46 14.8656C145.169 15.3021 145.72 15.9148 146.113 16.7039C146.505 17.493 146.701 18.4143 146.701 19.4679C146.701 20.5171 146.505 21.434 146.113 22.2187C145.72 23.0034 145.169 23.6139 144.46 24.0504C143.75 24.4868 142.919 24.705 141.967 24.705ZM141.973 23.0453C142.59 23.0453 143.102 22.8822 143.507 22.5559C143.913 22.2297 144.213 21.7955 144.407 21.2533C144.605 20.7111 144.704 20.1137 144.704 19.4613C144.704 18.8133 144.605 18.2182 144.407 17.6759C144.213 17.1293 143.913 16.6907 143.507 16.3601C143.102 16.0294 142.59 15.8641 141.973 15.8641C141.352 15.8641 140.836 16.0294 140.426 16.3601C140.02 16.6907 139.718 17.1293 139.52 17.6759C139.326 18.2182 139.229 18.8133 139.229 19.4613C139.229 20.1137 139.326 20.7111 139.52 21.2533C139.718 21.7955 140.02 22.2297 140.426 22.5559C140.836 22.8822 141.352 23.0453 141.973 23.0453ZM149.812 28.3088C149.517 28.3088 149.248 28.2845 149.006 28.236C148.763 28.192 148.582 28.1435 148.463 28.0906L148.94 26.4705C149.301 26.5675 149.623 26.6094 149.905 26.5962C150.187 26.5829 150.436 26.4771 150.652 26.2788C150.873 26.0804 151.067 25.7564 151.234 25.3067L151.479 24.6322L147.762 14.3433H149.878L152.451 22.2253H152.557L155.129 14.3433H157.251L153.066 25.8556C152.872 26.3846 152.625 26.832 152.325 27.1979C152.025 27.5682 151.668 27.8459 151.254 28.0311C150.839 28.2162 150.359 28.3088 149.812 28.3088Z" fill="white"/>
<defs>
<clipPath id="clip0_3567_7509">
<rect width="36" height="36" fill="white"/>
</clipPath>
</defs>
</svg>
