<svg width="133" height="22" viewBox="0 0 133 22" fill="none" xmlns="http://www.w3.org/2000/svg">
<g clip-path="url(#clip0_3567_7399)">
<path fill-rule="evenodd" clip-rule="evenodd" d="M11.2095 22V17.74C15.8158 17.74 19.3571 13.2709 17.5997 8.51434C16.9607 6.76332 15.5229 5.35204 13.739 4.7248C8.8931 2.99989 4.34003 6.50197 4.34003 10.9972H0C0 3.81007 7.08249 -1.80894 14.7508 0.543202C18.1056 1.56247 20.7683 4.2021 21.8333 7.49512C24.2296 15.0481 18.5316 22 11.2095 22Z" fill="white"/>
<path fill-rule="evenodd" clip-rule="evenodd" d="M11.2088 17.766H6.89536V13.5321H11.2088V17.766Z" fill="white"/>
<path fill-rule="evenodd" clip-rule="evenodd" d="M6.8956 21.033H3.56735V17.7661H6.8956V21.033Z" fill="white"/>
<path fill-rule="evenodd" clip-rule="evenodd" d="M3.56821 17.7662H0.772491V15.0481H3.54159V17.7662H3.56821Z" fill="white"/>
<path fill-rule="evenodd" clip-rule="evenodd" d="M39.8598 6.39736C38.5818 5.5349 36.9842 5.09061 35.1204 5.09061H31.0732V17.7399H35.1204C36.9842 17.7399 38.5818 17.2695 39.8598 16.3548C40.5521 15.8582 41.1113 15.1787 41.484 14.3163C41.8568 13.4538 42.0698 12.4606 42.0698 11.3369C42.0698 10.2131 41.8834 9.21991 41.484 8.38364C41.1113 7.52117 40.5787 6.84165 39.8598 6.39736ZM33.4441 7.2076H34.7222C36.1334 7.2076 37.305 7.46899 38.1836 8.01782C39.1688 8.59277 39.6746 9.71656 39.6746 11.3108C39.6746 12.9573 39.1688 14.1073 38.1836 14.7345C37.3316 15.2833 36.1866 15.5708 34.7488 15.5708H33.4708V7.2076H33.4441Z" fill="white"/>
<path fill-rule="evenodd" clip-rule="evenodd" d="M44.9192 4.90768C44.5198 4.90768 44.2003 5.03836 43.934 5.2997C43.6678 5.56106 43.508 5.87467 43.508 6.2667C43.508 6.65873 43.6411 6.97236 43.9074 7.25981C44.1737 7.52119 44.5198 7.65182 44.9192 7.65182C45.3186 7.65182 45.6381 7.52119 45.931 7.25981C46.1972 6.99849 46.3304 6.65873 46.3304 6.2667C46.3304 5.87467 46.1972 5.56106 45.931 5.2997C45.6381 5.06449 45.2919 4.90768 44.9192 4.90768Z" fill="white"/>
<path d="M46.0372 8.80173H43.7474V17.7137H46.0372V8.80173Z" fill="white"/>
<path fill-rule="evenodd" clip-rule="evenodd" d="M54.3159 9.55962C53.6237 8.95854 52.8515 8.61877 52.0261 8.61877C50.7747 8.61877 49.7096 9.03691 48.9109 9.89938C48.0854 10.7357 47.686 11.8072 47.686 13.0879C47.686 14.3423 48.0854 15.4138 48.8842 16.2763C49.683 17.1126 50.748 17.5308 51.9995 17.5308C52.8781 17.5308 53.6237 17.2956 54.2627 16.8251V17.0342C54.2627 17.766 54.0497 18.341 53.6769 18.733C53.2775 19.125 52.7184 19.3341 52.0527 19.3341C50.9877 19.3341 50.3486 18.9159 49.5232 17.8705L47.979 19.3341L48.0322 19.3863C48.3783 19.8568 48.8842 20.3011 49.5499 20.7193C50.2155 21.1374 51.0941 21.3726 52.0793 21.3726C53.4372 21.3726 54.5289 20.9544 55.3277 20.1443C56.1265 19.3341 56.5525 18.2364 56.5525 16.9036V8.80172H54.3159V9.55962ZM53.7041 14.8128C53.3047 15.2571 52.7988 15.4662 52.1331 15.4662C51.4675 15.4662 50.9616 15.2571 50.5888 14.8128C50.1894 14.3685 50.0031 13.7936 50.0031 13.0618C50.0031 12.33 50.1894 11.755 50.5888 11.3107C50.9882 10.8664 51.4941 10.6573 52.1331 10.6573C52.7988 10.6573 53.3047 10.8664 53.7041 11.3107C54.1034 11.755 54.2898 12.3562 54.2898 13.0618C54.3164 13.7936 54.1034 14.3685 53.7041 14.8128Z" fill="white"/>
<path d="M60.7867 8.80173H58.4969V17.7137H60.7867V8.80173Z" fill="white"/>
<path fill-rule="evenodd" clip-rule="evenodd" d="M59.6701 4.90768C59.2707 4.90768 58.9512 5.03836 58.6849 5.2997C58.4187 5.56106 58.2589 5.87467 58.2589 6.2667C58.2589 6.65873 58.392 6.97236 58.6583 7.25981C58.9246 7.52119 59.2707 7.65182 59.6701 7.65182C60.0695 7.65182 60.389 7.52119 60.6818 7.25981C60.9481 6.99849 61.0813 6.65873 61.0813 6.2667C61.0813 5.87467 60.9481 5.56106 60.6818 5.2997C60.389 5.06449 60.0695 4.90768 59.6701 4.90768Z" fill="white"/>
<path fill-rule="evenodd" clip-rule="evenodd" d="M65.7932 6.39731H63.5566V8.80172H62.2519V10.8402H63.5566V14.5253C63.5566 15.6752 63.7963 16.5115 64.2489 16.9819C64.7282 17.4524 65.5535 17.7137 66.6984 17.7137C67.0713 17.7137 67.444 17.7137 67.8168 17.6876H67.9233V15.6491L67.1511 15.7013C66.6186 15.7013 66.2458 15.5968 66.0594 15.4139C65.8731 15.2309 65.7932 14.8389 65.7932 14.2378V10.8664H67.9233V8.82784H65.7932V6.39731Z" fill="white"/>
<path fill-rule="evenodd" clip-rule="evenodd" d="M78.6267 5.06445H80.9162V17.7138H78.6267V5.06445Z" fill="white"/>
<path fill-rule="evenodd" clip-rule="evenodd" d="M103.948 14.5253C103.549 14.9696 103.122 15.3616 102.803 15.5706C102.484 15.7797 102.084 15.8582 101.631 15.8582C100.966 15.8582 100.407 15.623 99.9805 15.1264C99.5543 14.6298 99.3148 14.0026 99.3148 13.2446C99.3148 12.4867 99.5279 11.8595 99.954 11.3629C100.38 10.8663 100.939 10.6312 101.605 10.6312C102.35 10.6312 103.122 11.0754 103.788 11.8595L105.306 10.4482C104.321 9.19373 103.069 8.61877 101.578 8.61877C100.327 8.61877 99.2354 9.06304 98.3566 9.95163C97.4778 10.8402 97.0252 11.9379 97.0252 13.2708C97.0252 14.6037 97.4778 15.7275 98.3566 16.5899C99.2354 17.4785 100.327 17.9228 101.578 17.9228C103.229 17.9228 104.56 17.2171 105.466 15.9365L103.948 14.5253Z" fill="white"/>
<path fill-rule="evenodd" clip-rule="evenodd" d="M113.32 10.0563C113.001 9.612 112.548 9.24611 112.015 8.98479C111.483 8.72341 110.843 8.59271 110.125 8.59271C108.847 8.59271 107.808 9.06317 107.036 9.95176C106.264 10.8665 105.891 11.9903 105.891 13.297C105.891 14.6561 106.317 15.7537 107.142 16.6162C107.968 17.4525 109.086 17.8968 110.444 17.8968C111.989 17.8968 113.24 17.2957 114.198 16.0935L114.252 16.0412L112.761 14.6299C112.627 14.7867 112.414 14.9697 112.255 15.1526C112.042 15.3617 111.829 15.5185 111.589 15.623C111.243 15.7798 110.87 15.8844 110.444 15.8844C109.805 15.8844 109.3 15.7015 108.9 15.3356C108.527 14.9958 108.314 14.5515 108.261 13.9765H114.305L114.332 13.1664C114.332 12.5914 114.252 12.0425 114.092 11.5199C113.879 10.9711 113.639 10.5006 113.32 10.0563ZM108.341 12.1472C108.448 11.729 108.66 11.3631 108.927 11.1017C109.247 10.8143 109.646 10.6575 110.125 10.6575C110.685 10.6575 111.11 10.8143 111.403 11.1279C111.669 11.4154 111.829 11.7551 111.856 12.1733H108.341V12.1472Z" fill="white"/>
<path fill-rule="evenodd" clip-rule="evenodd" d="M122.081 9.48124C121.389 8.90622 120.43 8.61877 119.232 8.61877C118.46 8.61877 117.768 8.77559 117.128 9.08916C116.543 9.37667 115.957 9.87326 115.584 10.5266L115.611 10.5527L117.076 11.9379C117.688 10.997 118.353 10.6573 119.232 10.6573C119.711 10.6573 120.111 10.788 120.403 11.0232C120.696 11.2584 120.856 11.572 120.856 11.9901V12.4345C120.297 12.2776 119.738 12.1731 119.178 12.1731C118.034 12.1731 117.128 12.4345 116.436 12.9572C115.744 13.4799 115.398 14.2378 115.398 15.1786C115.398 16.015 115.69 16.6945 116.277 17.191C116.862 17.6876 117.608 17.9228 118.486 17.9228C119.365 17.9228 120.164 17.583 120.91 16.9819V17.7137H123.146V11.9901C123.119 10.8925 122.773 10.0562 122.081 9.48124ZM118.033 14.3161C118.3 14.1331 118.646 14.0548 119.125 14.0548C119.684 14.0548 120.27 14.1593 120.855 14.3684V15.2309C120.35 15.6751 119.684 15.9103 118.885 15.9103C118.486 15.9103 118.193 15.832 117.98 15.649C117.767 15.4922 117.66 15.2831 117.66 14.9956C117.66 14.7082 117.767 14.4729 118.033 14.3161Z" fill="white"/>
<path fill-rule="evenodd" clip-rule="evenodd" d="M131.905 9.63813C131.266 8.93248 130.387 8.59271 129.243 8.59271C128.337 8.59271 127.592 8.8541 127.06 9.35068V8.80185H124.823V17.7138H127.112V12.8005C127.112 12.121 127.273 11.5983 127.592 11.2062C127.911 10.8142 128.364 10.6313 128.95 10.6313C129.456 10.6313 129.855 10.7881 130.148 11.1278C130.441 11.4676 130.574 11.938 130.574 12.5391V17.6877H132.864V12.5391C132.864 11.3107 132.545 10.3438 131.905 9.63813Z" fill="white"/>
<path fill-rule="evenodd" clip-rule="evenodd" d="M75.7529 9.48124C75.0608 8.90622 74.1019 8.61877 72.9042 8.61877C72.132 8.61877 71.4398 8.77559 70.8006 9.08916C70.215 9.37667 69.6289 9.87326 69.2562 10.5266L69.2828 10.5527L70.747 11.9379C71.3597 10.997 72.0254 10.6573 72.9042 10.6573C73.3833 10.6573 73.7823 10.788 74.0754 11.0232C74.3686 11.2584 74.5281 11.572 74.5281 11.9901V12.4345C73.9689 12.2776 73.4097 12.1731 72.8506 12.1731C71.7058 12.1731 70.8006 12.4345 70.1084 12.9572C69.4159 13.4799 69.0698 14.2378 69.0698 15.1786C69.0698 16.015 69.3626 16.6945 69.9483 17.191C70.5339 17.6876 71.2797 17.9228 72.1584 17.9228C73.0372 17.9228 73.8359 17.583 74.5817 16.9819V17.7137H76.8176V11.9901C76.7911 10.8925 76.4451 10.0562 75.7529 9.48124ZM71.7051 14.3161C71.9718 14.1331 72.3179 14.0548 72.797 14.0548C73.3561 14.0548 73.9417 14.1593 74.5274 14.3684V15.2309C74.0218 15.6751 73.3561 15.9103 72.5574 15.9103C72.1577 15.9103 71.8653 15.832 71.6522 15.649C71.4391 15.4922 71.3326 15.2831 71.3326 14.9956C71.3326 14.7082 71.4391 14.4729 71.7051 14.3161Z" fill="white"/>
<path fill-rule="evenodd" clip-rule="evenodd" d="M89.1706 17.8967C85.5232 17.8967 82.5408 14.9695 82.5408 11.389C82.5408 7.80861 85.5232 4.88147 89.1706 4.88147C92.8187 4.88147 95.8004 7.80861 95.8004 11.389C95.8004 14.9695 92.8451 17.8967 89.1706 17.8967ZM89.1699 7.15535C86.8003 7.15535 84.8832 9.03704 84.8832 11.3631C84.8832 13.6891 86.8003 15.5708 89.1699 15.5708C91.5395 15.5708 93.4565 13.6891 93.4565 11.3631C93.4565 9.03704 91.5395 7.15535 89.1699 7.15535Z" fill="white"/>
</g>
<defs>
<clipPath id="clip0_3567_7399">
<rect width="133" height="22" fill="white"/>
</clipPath>
</defs>
</svg>
