<svg width="100" height="28" viewBox="0 0 100 28" fill="none" xmlns="http://www.w3.org/2000/svg">
<path fill-rule="evenodd" clip-rule="evenodd" d="M22.1559 2.5921H25.8042C29.0493 2.5921 31.6838 5.22667 31.6838 8.47173V21.3003C31.6838 24.5454 29.0493 27.1799 25.8042 27.1799H25.5167C23.8465 26.9187 23.1222 26.4178 22.5626 25.9945L17.9241 22.1806C17.8079 22.0866 17.6629 22.0353 17.5135 22.0353C17.364 22.0353 17.2191 22.0866 17.1029 22.1806L15.5959 23.4197L11.3517 19.93C11.2357 19.8358 11.0908 19.7844 10.9413 19.7844C10.7919 19.7844 10.647 19.8358 10.5309 19.93L4.6347 25.1169C3.44805 26.0821 2.66312 25.9038 2.15411 25.8478C0.83934 24.7688 0 23.1318 0 21.3003V8.47173C0 5.22667 2.63456 2.5921 5.88001 2.5921H9.52024L9.51368 2.60677L9.39096 2.9645L9.35276 3.08722L9.18759 3.82005L9.16482 3.94855L9.09227 4.68254L9.08263 4.88398L9.08108 4.9546L9.08803 5.29111L9.10462 5.48831L9.14553 5.79703L9.19763 6.07488L9.25937 6.33074L9.33964 6.60781L9.54803 7.19439L9.61672 7.37036L9.97947 8.13676L10.1076 8.37217L10.5271 9.09226L10.6876 9.35197L11.273 10.2141L11.3575 10.3283L12.1193 11.3197L12.3655 11.6249L13.2353 12.6418L13.414 12.8375L14.131 13.6089L14.415 13.9029L14.8843 14.3691L14.7901 14.4478L14.7315 14.5007C14.5721 14.6493 14.4208 14.8071 14.2792 14.973C14.2111 15.0533 14.1463 15.1362 14.0847 15.2216C13.9908 15.352 13.9068 15.4892 13.8335 15.6322C13.796 15.7064 13.7624 15.7825 13.7328 15.8602C13.6564 16.0588 13.6105 16.2677 13.5965 16.48L13.5938 16.6633C13.6005 16.9218 13.6532 17.177 13.7494 17.417C13.8468 17.6603 13.989 17.8832 14.1684 18.0742C14.2989 18.2131 14.4475 18.3343 14.6103 18.4338C14.7488 18.5187 14.8966 18.5886 15.0502 18.6418C15.3841 18.755 15.7383 18.7953 16.0891 18.7599H16.091C16.3903 18.7309 16.6811 18.6446 16.9477 18.5056C17.0627 18.4446 17.1723 18.374 17.275 18.2937C17.5689 18.065 17.7967 17.7621 17.9349 17.4162C18.0429 17.1465 18.0958 16.8582 18.0912 16.568L18.0827 16.4163C18.0631 16.216 18.0153 16.0194 17.9407 15.8325C17.9083 15.751 17.8716 15.6714 17.8307 15.594C17.7547 15.4513 17.6683 15.3144 17.5721 15.1845C17.5281 15.1251 17.4826 15.0668 17.4355 15.0097C17.2789 14.8227 17.1103 14.6461 16.9307 14.481L16.8038 14.373L17.0187 14.1607L17.9426 13.196L18.2621 12.8452L18.7588 12.2864L19.0818 11.9086L19.5425 11.3475L19.8544 10.9554L20.3124 10.343L20.5436 10.0261L20.8716 9.53566L21.1448 9.11773L21.6596 8.22128L21.9541 7.63316L21.9625 7.61502L22.1879 7.06936C22.1909 7.0623 22.1935 7.05509 22.1956 7.04774L22.4384 6.2906L22.4638 6.18023L22.5692 5.57745L22.5896 5.41421L22.5958 5.31427L22.6031 4.93685L22.6012 4.86662L22.5819 4.52857L22.558 4.26615L22.4384 3.50939C22.4364 3.49936 22.4345 3.48933 22.4314 3.47929L22.2778 2.91973L22.225 2.76422L22.1559 2.5921ZM23.8901 18.5897C23.5223 18.5949 23.1709 18.7434 22.9108 19.0035C22.6506 19.2636 22.5022 19.615 22.497 19.9828C22.5024 20.3506 22.6509 20.7018 22.911 20.9618C23.1711 21.2219 23.5224 21.3703 23.8901 21.3756C24.2579 21.3702 24.6091 21.2218 24.8693 20.9618C25.1294 20.7017 25.278 20.3506 25.2836 19.9828C25.2783 19.615 25.1298 19.2636 24.8696 19.0035C24.6094 18.7433 24.258 18.5949 23.8901 18.5897Z" fill="white"/>
<path fill-rule="evenodd" clip-rule="evenodd" d="M13.5074 26.8828L17.2877 23.6925C17.357 23.6346 17.4444 23.6028 17.5347 23.6026C17.6251 23.6025 17.7126 23.634 17.782 23.6918L21.6171 26.8828C21.8502 27.0727 22.142 27.1765 22.4426 27.1769H12.687C12.9864 27.1769 13.2762 27.0731 13.5074 26.8828ZM15.8606 15.4944L15.8977 15.5052C15.9096 15.511 15.9197 15.5191 15.9305 15.5264L15.9613 15.5538C16.0378 15.6241 16.1118 15.6978 16.1832 15.7734C16.2334 15.8271 16.2824 15.8822 16.3295 15.9394C16.3893 16.0115 16.4453 16.0872 16.4962 16.1659C16.5182 16.2006 16.5387 16.2357 16.5579 16.2724C16.5745 16.304 16.5896 16.3368 16.6027 16.37C16.6259 16.4279 16.6432 16.4889 16.6486 16.551L16.6475 16.6676C16.6397 16.7727 16.6071 16.8746 16.5523 16.9647C16.4975 17.0548 16.422 17.1306 16.3322 17.1858C16.2155 17.2564 16.0844 17.2995 15.9486 17.312L15.8047 17.3163L15.6831 17.3055C15.6263 17.2972 15.5703 17.2836 15.516 17.2649C15.4607 17.2461 15.4077 17.2213 15.3578 17.1908L15.2629 17.1214C15.151 17.0259 15.0748 16.8953 15.0468 16.7509C15.0421 16.7266 15.0383 16.7022 15.0356 16.6776L15.0321 16.5665C15.034 16.5364 15.0386 16.5066 15.0452 16.4769C15.0618 16.4121 15.0857 16.3492 15.1158 16.2894C15.1548 16.2145 15.1992 16.1423 15.2486 16.0737C15.3308 15.9625 15.4199 15.8568 15.5152 15.7568C15.5766 15.692 15.6395 15.6291 15.7051 15.5685L15.7518 15.5264C15.7842 15.5052 15.7846 15.5052 15.8216 15.4944H15.8606ZM15.6217 0.00115772L15.6368 0V12.9914L15.6044 12.9316C15.1767 12.1405 14.7786 11.3338 14.4108 10.5132C14.1124 9.84886 13.8422 9.17229 13.6008 8.48525C13.408 7.93799 13.2451 7.3807 13.1126 6.81583C13.0103 6.36702 12.9316 5.91166 12.8992 5.45166C12.8866 5.25537 12.8829 5.05862 12.888 4.862C12.8911 4.69066 12.898 4.5197 12.9088 4.34875C12.9258 4.08016 12.9532 3.81195 12.9926 3.54568C13.0238 3.33614 13.0624 3.12736 13.1099 2.9209C13.1477 2.7569 13.1917 2.59404 13.2419 2.43389C13.3144 2.20235 13.4013 1.97621 13.5024 1.75548C13.5394 1.67598 13.5792 1.59687 13.6208 1.5193C13.8717 1.05467 14.212 0.626707 14.6578 0.340753C14.9474 0.152227 15.2779 0.0357825 15.6217 0.00115772ZM17.3062 0.0339595L18.1803 0.283253C18.5851 0.432598 18.9749 0.627093 19.333 0.870212C19.8211 1.19968 20.2418 1.61934 20.5725 2.10665C20.7662 2.3953 20.9268 2.70673 21.0522 3.03204C21.2339 3.51327 21.3466 4.01764 21.3864 4.53012C21.398 4.66442 21.4045 4.7991 21.4072 4.93378C21.4103 5.05881 21.4095 5.18423 21.3995 5.30926C21.3748 5.58904 21.3223 5.86573 21.2424 6.13509C21.1783 6.35552 21.1027 6.57244 21.0159 6.78496C20.9079 7.0493 20.7878 7.30863 20.6562 7.56178C20.3653 8.12404 20.0299 8.66238 19.671 9.18296C19.2261 9.82277 18.7519 10.4417 18.2498 11.0376C17.7046 11.6878 17.136 12.318 16.5452 12.927C16.9461 12.1752 17.3203 11.4095 17.667 10.6313C17.86 10.1975 18.0417 9.75911 18.2127 9.31648C18.4006 8.83025 18.5704 8.33745 18.7209 7.83847C18.8329 7.46453 18.9316 7.08673 19.0131 6.70469C19.0829 6.37706 19.1377 6.04595 19.1717 5.71292C19.2002 5.43507 19.2107 5.15567 19.2037 4.87705C19.2011 4.70649 19.1948 4.53601 19.1848 4.36573C19.1439 3.68075 19.0397 2.9977 18.8398 2.34051C18.7641 2.09133 18.6721 1.84743 18.5643 1.61038C18.3084 1.05313 17.9514 0.532547 17.4683 0.152432L17.3062 0.0339595Z" fill="white"/>
<path fill-rule="evenodd" clip-rule="evenodd" d="M69.1589 23.4938L65.0101 14.6122C64.6635 13.8725 64.4571 13.6019 64.1105 13.2882L63.7733 12.9841C63.5043 12.7232 63.3275 12.4817 63.3275 12.1949C63.3275 11.7843 63.6528 11.4386 64.2452 11.4386H67.8472C68.4126 11.4386 68.7649 11.7326 68.7649 12.1718C68.7649 12.4168 68.6522 12.6005 68.5098 12.7807C68.3408 12.9949 68.1208 13.2037 68.1208 13.5842C68.1208 13.8227 68.1903 14.0604 68.3242 14.3641L70.8002 20.1623L73.021 14.51C73.1576 14.1341 73.251 13.803 73.251 13.5379C73.251 13.1254 73.0268 12.9571 72.8539 12.7726C72.7034 12.6125 72.583 12.4431 72.583 12.1718C72.583 11.7284 72.9439 11.4386 73.4293 11.4386H75.6475C76.2696 11.4386 76.5652 11.7604 76.5652 12.1718C76.5652 12.435 76.4135 12.6789 76.1152 12.9421L75.8015 13.1998C75.3646 13.5568 75.1624 14.0731 74.9328 14.6072L71.5693 22.7104C71.1718 23.6578 70.5802 24.973 69.6764 26.052C68.7584 27.1479 67.5204 28 65.8436 28C64.4397 28 63.5899 27.3297 63.5899 26.3638C63.5899 25.4789 64.2444 24.7739 65.1042 24.7739C65.575 24.7739 65.8201 24.9961 66.0686 25.225C66.2739 25.4137 66.4823 25.6074 66.8933 25.6074C67.2745 25.6074 67.6296 25.4461 67.9514 25.1856C68.4431 24.7881 68.8548 24.1622 69.1589 23.4938ZM93.5384 23.4622C95.4058 23.4622 96.9359 22.8223 98.1295 21.5454C99.3219 20.2704 99.9185 18.7356 99.9185 16.9412C99.9185 15.1896 99.3516 13.7505 98.2221 12.6225C97.0929 11.4953 95.6277 10.9292 93.8243 10.9292C91.9257 10.9292 90.3728 11.5455 89.1638 12.7738C87.954 14.0033 87.3489 15.4925 87.3489 17.2418C87.3489 18.9757 87.9262 20.4452 89.0789 21.6507C90.2327 22.8571 91.7185 23.4622 93.5384 23.4622ZM77.7468 23.3232C78.8266 23.3232 79.5945 22.5962 79.5945 21.5481C79.5945 20.5247 78.8015 19.7961 77.7468 19.7961C76.642 19.7961 75.8513 20.5258 75.8513 21.5481C75.8513 22.595 76.6424 23.3232 77.7468 23.3232ZM81.592 21.6619L81.8548 21.3841C82.1673 21.0804 82.2681 20.7736 82.2681 19.9277V14.9268C82.2681 14.1955 82.1685 13.869 81.8582 13.5896L81.5491 13.3125C81.2462 13.0451 81.1466 12.8788 81.1466 12.6117C81.1466 12.232 81.4411 11.9206 81.9146 11.8125L84.0139 11.3031C84.2146 11.2545 84.4411 11.207 84.6167 11.207C84.8582 11.207 85.0558 11.2865 85.1944 11.4243C85.3333 11.5624 85.4151 11.7612 85.4151 12.0097V19.9277C85.4151 20.7261 85.512 21.0974 85.8454 21.3779C85.8508 21.3825 85.8558 21.3876 85.8604 21.393L86.0951 21.6662C86.3899 21.9529 86.5122 22.1432 86.5122 22.4048C86.5122 22.8714 86.1603 23.138 85.5949 23.138H82.0404C81.5017 23.138 81.1466 22.8729 81.1466 22.4048C81.1466 22.142 81.269 21.9502 81.592 21.6619ZM57.833 21.6623L58.0958 21.3841C58.4088 21.0804 58.5091 20.7736 58.5091 19.9277V9.48629C58.5091 8.77815 58.4343 8.43046 58.1028 8.15145L57.7856 7.84427C57.512 7.57838 57.412 7.4136 57.412 7.14771C57.412 6.7676 57.708 6.45733 58.1557 6.34889L60.231 5.8395C60.4321 5.79087 60.6582 5.74341 60.8342 5.74341C61.0739 5.74341 61.2768 5.81557 61.4216 5.95257C61.5667 6.08995 61.6562 6.29409 61.6562 6.56924V19.9277C61.6562 20.728 61.7557 21.0781 62.0903 21.381L62.3581 21.6642C62.6549 21.9529 62.7537 22.142 62.7537 22.4048C62.7537 22.5985 62.6946 22.7548 62.5893 22.8741C62.4407 23.0419 62.1918 23.138 61.8599 23.138H58.3058C57.9739 23.138 57.725 23.0419 57.576 22.8741C57.4711 22.7548 57.412 22.5985 57.412 22.4048C57.412 22.1416 57.5096 21.951 57.833 21.6623ZM48.155 16.2851V19.8814C48.155 20.4232 48.2622 20.9237 48.7087 21.3355L48.9974 21.6156C49.3208 21.9294 49.4192 22.1173 49.4192 22.4048C49.4192 22.844 49.0668 23.138 48.5015 23.138H44.4939C43.9285 23.138 43.5766 22.844 43.5766 22.4048C43.5766 22.0637 43.6765 21.902 43.9999 21.6141L44.2874 21.3347C44.6224 21.0314 44.8408 20.6181 44.8408 19.8814V10.2735C44.8408 9.68811 44.7112 9.20921 44.287 8.81906L43.998 8.53889C43.7009 8.25062 43.5766 8.06115 43.5766 7.77288C43.5766 7.30748 43.9297 7.0165 44.4939 7.0165H55.2286C55.6388 7.0165 55.9992 7.10796 56.2296 7.33372C56.3898 7.49078 56.492 7.71229 56.5036 8.01985L56.6707 10.4977C56.6873 10.8076 56.5958 11.0658 56.4172 11.2252C56.2941 11.3348 56.1285 11.4004 55.9201 11.4004C55.6573 11.4004 55.4559 11.3012 55.276 11.1298C55.1143 10.9759 54.9704 10.7598 54.8079 10.5055C54.4159 9.87875 54.2333 9.65338 53.8154 9.36048C53.2338 8.93136 52.3478 8.78394 50.6722 8.78394C49.7055 8.78394 49.0954 8.82601 48.711 8.92518C48.4625 8.98924 48.319 9.0726 48.2422 9.19493C48.1635 9.31996 48.155 9.47818 48.155 9.67152V14.5409H50.6722C51.2746 14.5409 51.6983 14.432 52.1892 13.7609L52.1919 13.7571C52.3887 13.5066 52.5311 13.3222 52.6666 13.1998C52.8244 13.0571 52.9761 12.9895 53.1771 12.9895C53.3705 12.9912 53.5554 13.0693 53.6915 13.2067C53.8276 13.3441 53.9039 13.5297 53.9038 13.7231V17.0801C53.9038 17.5297 53.5534 17.8365 53.1771 17.8365C52.9899 17.8365 52.8379 17.7697 52.6797 17.63C52.5435 17.5104 52.4007 17.3309 52.2154 17.0913C51.6783 16.3959 51.2989 16.2851 50.6722 16.2851H48.155ZM90.6869 16.2002C90.6869 14.9958 90.9493 14.1302 91.4931 13.6097C92.0303 13.0956 92.6076 12.8355 93.2281 12.8355C94.0817 12.8355 94.8508 13.3133 95.5447 14.2526C96.2536 15.2131 96.6044 16.5113 96.6044 18.1448C96.6044 19.3504 96.3412 20.2241 95.7967 20.7597C95.2599 21.288 94.683 21.5558 94.0628 21.5558C93.2092 21.5558 92.4405 21.0742 91.7466 20.1276C91.0373 19.159 90.6869 17.8492 90.6869 16.2002ZM83.6627 9.68696C84.7448 9.68696 85.5104 9.078 85.5104 8.02757C85.5104 7.00184 84.7456 6.39134 83.6627 6.39134C82.5548 6.39134 81.7907 7.00223 81.7907 8.02757C81.7907 9.05253 82.5552 9.68696 83.6627 9.68696Z" fill="white"/>
</svg>
