<svg viewBox="0 6.344 180 41.312" xmlns="http://www.w3.org/2000/svg">
  <path d="M 89.797 16.672 C 82.767 16.672 77.699 21.32 77.699 28.292 C 77.699 35.262 83.403 39.91 90.432 39.91 C 94.679 39.91 98.424 38.207 100.741 35.334 L 95.869 32.48 C 94.582 33.907 92.628 34.74 90.432 34.74 C 87.383 34.74 84.792 33.125 83.83 30.545 L 101.67 30.545 C 101.81 29.82 101.893 29.072 101.893 28.284 C 101.893 21.32 96.824 16.672 89.797 16.672 Z M 83.773 26.031 C 84.568 23.457 86.746 21.836 89.79 21.836 C 92.839 21.836 95.018 23.457 95.806 26.031 L 83.773 26.031 Z M 158.353 16.672 C 151.324 16.672 146.257 21.32 146.257 28.292 C 146.257 35.262 151.961 39.91 158.99 39.91 C 163.236 39.91 166.979 38.207 169.297 35.334 L 164.427 32.48 C 163.14 33.907 161.186 34.74 158.99 34.74 C 155.939 34.74 153.348 33.125 152.387 30.545 L 170.227 30.545 C 170.367 29.82 170.449 29.072 170.449 28.284 C 170.449 21.32 165.382 16.672 158.353 16.672 Z M 152.336 26.031 C 153.132 23.457 155.31 21.836 158.353 21.836 C 161.402 21.836 163.58 23.457 164.37 26.031 L 152.336 26.031 Z M 127.487 28.29 C 127.487 32.164 129.983 34.746 133.854 34.746 C 136.477 34.746 138.444 33.538 139.456 31.57 L 144.347 34.43 C 142.321 37.851 138.527 39.91 133.854 39.91 C 126.818 39.91 121.757 35.262 121.757 28.29 C 121.757 21.32 126.824 16.672 133.854 16.672 C 138.527 16.672 142.314 18.731 144.347 22.154 L 139.456 25.012 C 138.444 23.042 136.477 21.836 133.854 21.836 C 129.989 21.836 127.487 24.418 127.487 28.292 L 127.487 28.29 Z M 180 9.573 L 180 39.265 L 174.269 39.265 L 174.269 9.57 L 180 9.57 L 180 9.573 Z M 23.525 6.344 L 47.05 47.656 L 0 47.656 L 23.525 6.344 Z M 82.34 9.571 L 64.698 40.555 L 47.057 9.571 L 53.671 9.571 L 64.698 28.937 L 75.725 9.571 L 82.34 9.571 Z M 119.847 17.317 L 119.847 23.573 C 119.186 23.369 118.5 23.263 117.809 23.255 C 114.11 23.255 111.442 25.839 111.442 29.711 L 111.442 39.265 L 105.713 39.265 L 105.713 17.317 L 111.442 17.317 L 111.442 23.257 C 111.442 19.977 115.206 17.317 119.847 17.317 Z" fill="white"/>
</svg>
